<?xml version="1.0" encoding="utf-8"?>
<!-- Generator: Adobe Illustrator 15.1.0, SVG Export Plug-In . SVG Version: 6.00 Build 0)  -->
<!DOCTYPE svg PUBLIC "-//W3C//DTD SVG 1.1//EN" "http://www.w3.org/Graphics/SVG/1.1/DTD/svg11.dtd">
<svg version="1.1" id="Layer_1" xmlns="http://www.w3.org/2000/svg" xmlns:xlink="http://www.w3.org/1999/xlink" x="0px" y="0px"
	 width="278.641px" height="266.02px" viewBox="270.84 88.646 278.641 266.02"
	 enable-background="new 270.84 88.646 278.641 266.02" xml:space="preserve">
<path fill="#F2634B" stroke="#000000" stroke-width="2" stroke-miterlimit="10" d="M510.507,170.968c0,0,30,15.5,30,70.5
	s-26,71-30,74.5s-33,29-94,31c0,0-92,8-125.5-50.5c0,0-22.5-39-8.5-77c0,0,4.491-12.036,11.536-23.294
	c4.708-7.524,18.714-19.174,21.729-21.286c9.047-6.336,29.485-18.469,48.235-14.163c25,5.742,45.206,7.242,45.206,7.242
	s25.294-17.499,47.794-15.999S500.665,162.783,510.507,170.968z"/>
<path fill="#337B3C" stroke="#000000" stroke-width="2" stroke-miterlimit="10" d="M406.507,160.468c0,0,43-20,69,8c0,0-13-6-34.5,0
	c0,0,18.5,7,24.5,23c0,0-18-13-40,0c0,0,12,6,15.5,17c0,0-28.5-17-44.5-12c0,0-22,8-31,30c0,0-2-27,10-41c0,0-28-2-39,20
	c0,0,7-28,29-39c0,0-12-8-20-6c0,0,23-11,45,3c0,0-15-37,15.5-68c0,0,21.5-4,23.5,11
	C429.507,106.468,407.507,111.468,406.507,160.468z"/>
</svg>
